<?xml version="1.0" encoding="utf-8"?>
<!-- Generator: Adobe Illustrator 22.0.0, SVG Export Plug-In . SVG Version: 6.00 Build 0)  -->
<svg version="1.1" xmlns="http://www.w3.org/2000/svg" xmlns:xlink="http://www.w3.org/1999/xlink" x="0px" y="0px"
	 viewBox="0 0 199.6 108" style="enable-background:new 0 0 199.6 108;" xml:space="preserve">
<style type="text/css">
	.st0{fill:#64D7FF;}
	.st1{fill:#FFFFFF;}
	.st2{fill:#E5E5E5;}
	.st3{fill:none;stroke:#FFFFFF;stroke-miterlimit:10;}
	.st4{fill:none;stroke:#000000;stroke-miterlimit:10;}
	.st5{fill:#D3D3D3;}
	.st6{fill:#1B4374;}
	.st7{fill:#149BD7;}
	.st8{fill:url(#SVGID_1_);}
	.st9{fill:#EEFBFF;}
	.st10{fill:#149BD7;stroke:#149BD7;stroke-width:2;stroke-miterlimit:10;}
	.st11{opacity:0.85;fill:#FFFFFF;}
	.st12{opacity:0.8;fill:#FFFFFF;}
	.st13{fill:#62C3ED;}
	.st14{clip-path:url(#SVGID_11_);}
	.st15{clip-path:url(#SVGID_11_);fill:#64D7FF;}
	.st16{clip-path:url(#SVGID_11_);fill:#149BD7;}
	.st17{clip-path:url(#SVGID_15_);}
	.st18{clip-path:url(#SVGID_15_);fill:#64D7FF;}
	.st19{clip-path:url(#SVGID_15_);fill:#149BD7;}
	.st20{display:none;}
	.st21{display:inline;}
	.st22{opacity:0.2;fill:#9C1127;}
	.st23{display:inline;opacity:0.2;fill:#9C1127;}
</style>
<g id="Design">
	<g>
		<g>
			<path class="st6" d="M14.6,65.9H4.4V41.6h9.8c2.3,0,4.2,0.6,5.5,1.8c1.3,1.2,2,2.9,2,5c0,1.2-0.3,2.3-0.9,3.2
				c-0.6,0.9-1.3,1.5-2.1,1.9c0.9,0.4,1.7,1.1,2.4,2c0.6,0.9,1,2,1,3.5c0,2.2-0.7,3.9-2.1,5.2C18.6,65.3,16.8,65.9,14.6,65.9z
				 M13.8,45.8H9.2v5.6h4.6c1,0,1.8-0.3,2.3-0.8c0.5-0.5,0.8-1.2,0.8-2.1c0-0.8-0.3-1.5-0.8-2C15.6,46.1,14.8,45.8,13.8,45.8z
				 M14.1,55.7h-5v6h5c1,0,1.8-0.3,2.4-0.9c0.5-0.6,0.8-1.3,0.8-2.2c0-0.9-0.3-1.6-0.8-2.1C16,56,15.2,55.7,14.1,55.7z"/>
			<path class="st6" d="M26.3,65.9V41.6h4.7v24.4H26.3z"/>
			<path class="st6" d="M50.9,63.4C50,64.3,49,65,48,65.4c-1,0.4-2.3,0.7-3.7,0.7c-1.4,0-2.6-0.2-3.7-0.7c-1.1-0.4-2.1-1.2-3.1-2.2
				c-1-1-1.6-2.2-1.9-3.5c-0.2-1.3-0.4-3.3-0.4-6c0-2.7,0.1-4.7,0.4-6c0.3-1.4,0.9-2.5,1.9-3.5c1-1,2-1.7,3.1-2.2
				c1.1-0.4,2.3-0.7,3.7-0.7c1.3,0,2.6,0.2,3.6,0.7c1.1,0.4,2.1,1.2,3.1,2.2c1,1,1.6,2.2,1.9,3.6c0.3,1.4,0.4,3.4,0.4,6
				c0,2.7-0.1,4.7-0.4,6C52.7,61.1,52,62.3,50.9,63.4z M47.4,46.9c-0.8-0.9-1.8-1.3-3-1.3c-0.7,0-1.2,0.1-1.8,0.3
				c-0.5,0.2-1,0.6-1.4,1c-0.4,0.5-0.7,1.1-0.9,2c-0.1,0.9-0.2,2.4-0.2,4.8c0,2.4,0.1,4,0.2,4.8c0.1,0.8,0.5,1.6,1.1,2.3
				c0.6,0.7,1.6,1.1,2.9,1.1c1.3,0,2.2-0.3,2.8-1c0.6-0.7,1-1.5,1.2-2.4c0.2-0.9,0.3-2.5,0.3-4.7c0-2.3-0.1-3.9-0.2-4.7
				C48.2,48.1,47.9,47.5,47.4,46.9z"/>
			<path class="st6" d="M57.6,65.9V41.6h4.7v20.1h11v4.2H57.6z"/>
			<path class="st6" d="M90.5,65.9l-1.4-4.3h-8.6l-1.5,4.3h-5l8.8-24.4h3.7l8.9,24.4H90.5z M84.8,48.8l-3.1,8.8h6L84.8,48.8z"/>
			<path class="st6" d="M107.2,45.8v20.1h-4.7V45.8h-6.4v-4.2h17.5v4.2H107.2z"/>
			<path class="st6" d="M116.8,65.9V41.6h4.7v24.4H116.8z"/>
			<path class="st6" d="M141,65.9L131.4,51v14.9h-4.7V41.6h4.2l9.6,14.9V41.6h4.7v24.4H141z"/>
			<path class="st6" d="M164.2,65.9l-1.4-4.3h-8.6l-1.5,4.3h-5l8.8-24.4h3.7l8.9,24.4H164.2z M158.5,48.8l-3.1,8.8h6L158.5,48.8z"/>
		</g>
		<g>
			<path class="st7" d="M123.9,7C102.6,7,89.7,21.3,91,40.8h0.2c-0.6-16.8,10.9-29,29.5-29c23,0,48.3,18.7,56.5,41.7
				c8.2,23-3.9,41.7-26.9,41.7c-18.6,0-38.6-12.2-50-29h-0.2c12.5,19.5,35.5,33.8,56.8,33.8c25.7,0,39.2-20.9,30.1-46.6
				C177.9,27.8,149.6,7,123.9,7z"/>
			<path class="st6" d="M125.4,4.7c-22.6,0-36.2,15.1-34.8,35.8h0.2C90.2,22.7,102.3,9.9,122,9.9c24.4,0,51.1,19.8,59.8,44.1
				c8.6,24.4-4.1,44.1-28.5,44.1c-19.7,0-40.9-12.9-52.9-30.6h-0.2c13.2,20.7,37.6,35.8,60.1,35.8c27.2,0,41.5-22.1,31.8-49.3
				C182.5,26.8,152.6,4.7,125.4,4.7z"/>
		</g>
	</g>
</g>
<g id="Grilla" class="st20">
</g>
<g id="Container" class="st20">
</g>
</svg>
